<svg width="123" height="129" viewBox="0 0 123 129" fill="none" xmlns="http://www.w3.org/2000/svg">
<path d="M99.1293 106.873C97.812 107.507 96.2381 106.93 95.6541 105.565C90.2638 92.9704 87.4752 79.3602 87.4752 65.591C87.4752 51.8217 90.2638 38.2116 95.6541 25.6165C96.2381 24.2519 97.812 23.6748 99.1293 24.3091L120.928 34.8052C122.245 35.4395 122.805 37.0445 122.237 38.416C118.678 47.0036 116.839 56.2448 116.839 65.591C116.839 74.9371 118.678 84.1784 122.237 92.766C122.805 94.1375 122.245 95.7425 120.928 96.3768L99.1293 106.873Z" fill="#272D34"/>
<path d="M50.9356 84.3397L50.9356 44.6504C50.9356 36.4305 44.2283 29.7669 35.9545 29.7669L2.72733 29.7669C1.22106 29.7669 0 28.5538 0 27.0574L0 2.70956C0 1.21311 1.22107 0 2.72733 0L35.9545 0C60.776 0 80.8977 19.9907 80.8977 44.6504L80.8977 84.3397C80.8977 108.999 60.776 128.99 35.9545 128.99H2.72733C1.22106 128.99 0 127.777 0 126.281L0 101.933C0 100.436 1.22107 99.2232 2.72733 99.2232L35.9545 99.2232C44.2283 99.2232 50.9356 92.5596 50.9356 84.3397Z" fill="#272D34"/>
</svg>
